<?xml version="1.0" standalone="no"?>
<!DOCTYPE svg PUBLIC "-//W3C//DTD SVG 20010904//EN"
 "http://www.w3.org/TR/2001/REC-SVG-20010904/DTD/svg10.dtd">
<svg version="1.0" xmlns="http://www.w3.org/2000/svg"
 width="512.000000pt" height="512.000000pt" viewBox="0 0 512.000000 512.000000"
 preserveAspectRatio="xMidYMid meet">

<g transform="translate(0.000000,512.000000) scale(0.100000,-0.100000)"
fill="#000000" stroke="none">
<path d="M2634 3193 c-809 -808 -1630 -1629 -1824 -1826 l-354 -358 277 -277
276 -276 473 469 c666 663 2449 2446 2848 2848 l334 338 -274 274 c-151 151
-277 275 -280 275 -3 0 -668 -660 -1476 -1467z"/>
<path d="M2490 3874 c-19 -2 -78 -9 -130 -15 -597 -68 -1264 -374 -1864 -853
-140 -112 -352 -303 -436 -392 l-62 -66 39 -40 c214 -223 583 -534 839 -706
l61 -40 272 272 272 272 -13 54 c-8 33 -12 115 -12 205 1 127 5 165 27 247 80
302 282 555 560 703 206 110 468 157 692 125 l69 -11 113 113 113 113 -42 7
c-50 9 -447 18 -498 12z"/>
<path d="M3946 3121 l-268 -268 18 -79 c30 -124 25 -358 -9 -486 -120 -455
-515 -781 -1000 -827 -101 -10 -248 -2 -334 17 l-41 9 -103 -103 c-57 -57
-101 -105 -98 -108 12 -11 262 -38 404 -43 692 -25 1381 229 2035 751 122 98
475 440 539 523 l32 42 -104 118 c-215 244 -545 546 -744 681 l-60 40 -267
-267z"/>
<path d="M2478 3369 c-273 -40 -516 -241 -602 -499 -13 -41 -28 -104 -31 -140
l-7 -65 356 355 c196 195 356 356 356 357 0 2 -3 2 -7 2 -5 -1 -34 -5 -65 -10z"/>
<path d="M3045 2219 l-290 -289 55 15 c198 57 367 195 462 378 27 50 72 177
65 183 -2 2 -133 -127 -292 -287z"/>
</g>
</svg>
