<?xml version="1.0" standalone="no"?>
<!DOCTYPE svg PUBLIC "-//W3C//DTD SVG 20010904//EN"
 "http://www.w3.org/TR/2001/REC-SVG-20010904/DTD/svg10.dtd">
<svg version="1.0" xmlns="http://www.w3.org/2000/svg"
 width="512.000000pt" height="512.000000pt" viewBox="0 0 512.000000 512.000000"
 preserveAspectRatio="xMidYMid meet">

<g transform="translate(0.000000,512.000000) scale(0.100000,-0.100000)"
fill="#000000" stroke="none">
<path d="M2490 3874 c-19 -2 -78 -9 -130 -15 -597 -68 -1264 -374 -1864 -853
-140 -112 -352 -303 -436 -392 l-62 -66 39 -40 c79 -83 326 -310 435 -400 676
-563 1342 -849 2038 -875 696 -26 1384 227 2040 751 122 98 475 440 539 523
l32 42 -104 118 c-149 168 -410 421 -562 543 -441 353 -923 573 -1417 646 -98
14 -474 27 -548 18z m273 -239 c250 -38 487 -161 659 -344 125 -132 217 -298
265 -476 24 -90 27 -117 26 -265 0 -145 -3 -177 -26 -262 -121 -456 -515 -782
-1000 -827 -507 -48 -998 255 -1168 720 -51 141 -63 209 -62 379 0 134 3 168
26 252 149 559 696 911 1280 823z"/>
<path d="M2478 3370 c-354 -56 -619 -344 -635 -690 -6 -136 12 -227 71 -345
132 -264 380 -416 681 -416 321 0 593 181 708 471 14 36 29 82 33 104 l7 39
-59 -42 c-82 -57 -156 -81 -253 -81 -195 0 -357 113 -416 291 -27 80 -17 216
20 294 59 124 185 215 330 240 l70 12 -82 41 c-45 23 -115 51 -155 62 -84 23
-238 33 -320 20z"/>
</g>
</svg>
